HIERARCHY
ROOT Spine
{
    OFFSET 0.0 0.0 -0.0
    CHANNELS 6 Xposition Yposition Zposition Zrotation Xrotation Yrotation
    JOINT ShoulderCenter
    {
        OFFSET 0.0 32.76346969604492 0.0
        CHANNELS 3 Zrotation Xrotation Yrotation
        JOINT LeftShoulder
        {
            OFFSET 19.210508346557617 0.0 0.0
            CHANNELS 3 Zrotation Xrotation Yrotation
            JOINT LeftElbow
            {
                OFFSET 28.85390853881836 0.0 0.0
                CHANNELS 3 Zrotation Xrotation Yrotation
                JOINT LeftHand
                {
                    OFFSET 32.686134338378906 0.0 0.0
                    CHANNELS 3 Zrotation Xrotation Yrotation
                    End Site
                    {
                        OFFSET 13.074454307556152 0.0 0.0
                    }
                }
            }
        }
        JOINT RightShoulder
        {
            OFFSET -19.210508346557617 0.0 0.0
            CHANNELS 3 Zrotation Xrotation Yrotation
            JOINT RightElbow
            {
                OFFSET -28.85390853881836 0.0 0.0
                CHANNELS 3 Zrotation Xrotation Yrotation
                JOINT RightHand
                {
                    OFFSET -32.686134338378906 0.0 0.0
                    CHANNELS 3 Zrotation Xrotation Yrotation
                    End Site
                    {
                        OFFSET -13.074454307556152 0.0 0.0
                    }
                }
            }
        }
        End Site
        {
            OFFSET 0.0 13.105390548706055 0.0
        }
    }
    JOINT LeftHip
    {
        OFFSET 16.127129456971193 -16.127129456971193 0.0
        CHANNELS 3 Zrotation Xrotation Yrotation
        JOINT LeftKnee
        {
            OFFSET 0.0 -41.173683166503906 0.0
            CHANNELS 3 Zrotation Xrotation Yrotation
            JOINT LeftFoot
            {
                OFFSET 0.0 -50.059242248535156 0.0
                CHANNELS 3 Zrotation Xrotation Yrotation
                End Site
                {
                    OFFSET 0.0 0.0 20.023696899414062
                }
            }
        }
    }
    JOINT RightHip
    {
        OFFSET -16.127129456971193 -16.127129456971193 0.0
        CHANNELS 3 Zrotation Xrotation Yrotation
        JOINT RightKnee
        {
            OFFSET 0.0 -41.173683166503906 0.0
            CHANNELS 3 Zrotation Xrotation Yrotation
            JOINT RightFoot
            {
                OFFSET 0.0 -50.059242248535156 0.0
                CHANNELS 3 Zrotation Xrotation Yrotation
                End Site
                {
                    OFFSET 0.0 0.0 20.023696899414062
                }
            }
        }
    }
}
MOTION
Frames: 13
Frame Time: 0.03333333333333333
72.0999984741211 23.80000114440918 174.5 1.751605331193897 7.143286897135926 172.48698623854528 -9.405616946214256e-08 2.6381320422393376e-07 3.8811333472414278 105.91627573365653 56.85001036558186 -32.65004154874116 1.0166187956577721e-06 -1.710242171968087e-06 30.322531412564942 3.1805546814635168e-15 3.1805546814635168e-15 3.1805546814635168e-15 -93.71688582156769 39.159908501569944 26.87660015953441 3.641287382533128e-06 -2.2843636029848054e-06 -26.404179502996186 -6.3611093629270335e-15 3.1805546814635168e-15 -6.3611093629270335e-15 5.55195236682914 -8.170663139717794 -28.238077161216193 -7.76301122090074 13.66633636863627 -28.63071721875662 -9.939233379573488e-16 -2.9957664815867775e-32 3.4538835994017872e-15 -0.8555320110654224 -6.675979424717122 26.612895476085615 10.315655367473877 22.54034050690619 32.49350478688418 -7.95138670365879e-16 1.7241821476758432e-33 -2.484808344893372e-16
72.19999694824219 22.400001525878906 172.5 1.7462685771155186 6.605427977812157 172.00945816409208 -9.620614144889066e-08 -1.5419985505632456e-07 2.8251236519886547 102.83439894878066 58.32363438578926 -28.435542001218973 7.990760633482944e-07 6.083491123486015e-06 29.374442900209438 0.0 0.0 -6.361109362927033e-15 -91.15136149762685 35.12625203517595 23.09493848562115 -2.039233166864947e-06 -1.7788117988863044e-06 -24.129002955518395 -5.5659706925611536e-15 3.1805546814635164e-15 -3.1805546814635164e-15 5.824214458422305 -7.491697294147422 -30.512505062286163 -7.7565837189577405 12.939169157061206 -27.452621800833867 1.987846675914698e-16 -8.814881229992749e-33 -5.081433065306947e-15 -0.4529734794016026 -6.20908760687503 26.930616502404554 10.288053753764533 22.916573291272417 32.60959653801586 7.951386703658791e-16 -2.4138550067461805e-33 -3.478731682850721e-16
72.29999542236328 21.0 170.79998779296875 2.269673575692082 6.603357751602359 171.20242672099326 -8.570897876737705e-08 4.3094230462011453e-07 2.286417067775433 101.09002412496582 59.09030299630384 -26.399488884053728 5.55713106797608e-06 4.692759356341388e-06 31.469071646609375 1.5902773407317584e-15 4.4139062980501586e-32 3.1805546814635168e-15 -89.70105741548083 34.0676460727119 22.523845198289077 5.359267123234409e-06 -2.724608097683819e-07 -25.563026685806488 5.565970692561156e-15 1.5902773407317588e-15 -7.724336021587778e-32 6.552628247388364 -6.27277994719564 -33.00651411387539 -8.075169068308176 12.696722656992774 -26.629784340212105 3.9756933518293955e-16 8.793328953146801e-33 2.5345045117912397e-15 0.1585010995287267 -5.266276753599044 27.388576438072008 11.173205999738363 23.173760974190714 31.636863034383243 7.951386703658792e-16 -5.172546443027529e-32 -7.454425034680117e-15
72.29999542236328 19.400001525878906 169.10000610351562 2.101635577111226 5.932054304487434 171.00742646446886 -2.2085298362246052e-07 -2.134285943759585e-07 1.9013158291683512 99.24502200255557 63.42568340370954 -26.327544812185685 2.127834957132457e-06 2.672685869787091e-06 36.60575948345948 -1.5902773407317582e-15 -1.5902773407317582e-15 -2.2069531490250793e-32 -89.50522502773377 37.2735046160715 23.075362410240825 2.8466270559174197e-06 1.2592693848777341e-06 -30.295421855278565 3.1805546814635168e-15 -1.5902773407317584e-15 -3.1805546814635168e-15 6.972928168029275 -6.127070812216572 -36.227709165338794 -9.22729422676851 12.573233572603744 -26.737302083324042 -7.951386703658791e-16 -6.517408518214687e-32 9.392575543696946e-15 -0.02830098372331949 -5.001106807444729 26.534162231722874 11.68424716454948 23.088597043343366 30.142974711232018 -7.951386703658791e-16 -2.0690185772110117e-32 2.9817700138720468e-15
72.29999542236328 16.899999618530273 167.70001220703125 2.276607257337093 5.584715277732915 170.50785791214477 8.209721782283133e-08 3.812567363826859e-07 2.873584450144329 98.67311093910358 66.51535377739624 -30.249147371971574 5.375614370002313e-07 -4.259341865890145e-06 45.91831757900453 0.0 0.0 0.0 -89.97624686932501 45.6210438964151 26.610421390543625 2.6858598383204425e-06 -6.253137934079006e-07 -38.96239983303235 0.0 0.0 -3.1805546814635164e-15 7.239405726521173 -5.476736003804791 -37.107976917313245 -9.960678314103422 12.164910518018155 -25.402123905947903 3.4483642953516866e-32 7.951386703658792e-16 -4.969616689786745e-15 0.06873355866387018 -4.204124238634068 26.951733795518354 12.028876560701725 22.817555832973177 29.62522837148434 4.0001025826079564e-32 -1.5902773407317584e-15 2.882377680076312e-15
72.39999389648438 13.699999809265137 166.60000610351562 2.0952339409738263 4.529228346608949 170.5305341802021 4.542057391463084e-08 7.087802576817757e-08 1.7739873671958273 96.34906304885719 70.10716593571868 -34.33083927062821 -4.1499215477992164e-06 -9.472234735910257e-07 57.83006142544447 1.1131941385122307e-14 9.269203225905334e-31 9.541664044390549e-15 -89.47947302990633 51.75552460064026 31.05052575016163 8.025477485363215e-06 -2.542148009705256e-06 -51.80643144106087 7.951386703658793e-15 7.951386703658793e-15 -3.1805546814635183e-15 7.221616107005792 -5.528359206930591 -37.245226534079755 -11.600724084867318 11.84731001672553 -23.0242911190334 -2.1810904168099416e-32 7.951386703658792e-16 3.143282556290116e-15 0.1317870282680077 -4.854748402344734 26.136236170570278 11.26547912358056 24.51942378738959 32.175526977779 0.0 0.0 1.9878466759146985e-16
72.39999389648438 11.200000762939453 165.60000610351562 1.9207689775273737 2.965274395852857 170.18513358642204 -1.2329731640092982e-08 2.2387790851697576e-07 1.5365420721662826 93.58292353089841 71.49290466358838 -39.688463064621075 3.988167463997215e-06 -1.4831989144889438e-06 71.02796571379606 1.590277340731758e-15 -4.4139062980501586e-32 -3.180554681463516e-15 -86.70667075832526 55.98372385678603 35.78123428359422 1.4612625031424177e-06 -1.2138161239567875e-06 -67.9222566861834 0.0 0.0 0.0 7.2546834693693185 -8.050387450685921 -32.10807336065816 -13.253400536736494 15.502513503290963 -28.641994897818158 7.951386703658791e-16 -4.2501089940209533e-32 -6.125052570162162e-15 0.7812943019173083 -7.020382841907314 22.10280973221378 9.40891359128763 27.81401872692402 36.44510658616022 1.5902773407317588e-15 3.1805546814635168e-15 -7.355032700884382e-15
72.5 9.300000190734863 164.6999969482422 2.0888843446589678 1.5659461470228022 169.31824131021736 1.0690704295795051e-07 6.479958474922294e-09 2.157126993707045 92.59199622712651 73.20168698717704 -48.94692443790144 1.6406989104272185e-06 2.986296294605696e-06 86.77573423987758 1.5902773407317584e-15 -6.361109362927035e-15 -3.1805546814635176e-15 -84.0059026334504 59.81348477829512 42.97278981821131 -6.254597119727228e-06 -4.755459956451421e-06 -85.06935389068437 1.5902773407317582e-15 -6.361109362927033e-15 8.827812596100317e-32 6.883377974209027 -10.369055006621958 -22.49979069906096 -10.867629243809558 20.769104245261406 -38.101166447488154 5.862219302097867e-33 1.5902773407317588e-15 -4.224174186318734e-16 2.172827088205768 -9.202348818973293 17.999223954134337 5.606735590266137 32.30605069263258 44.873076634987726 0.0 0.0 -2.584200678689108e-15
72.5999984741211 8.199999809265137 164.10000610351562 2.0888842915121457 -0.6961239241329426 168.4707880365215 9.063125104763796e-08 1.0860330510745656e-07 1.826730422686467 91.80287917173386 75.43489491341595 -62.01176331307127 -1.3031163714793193e-06 -1.6163975739740787e-06 102.88728532222277 7.951386703658793e-15 -6.361109362927035e-15 -3.1805546814635168e-15 -82.47581420792953 62.03547588810729 53.73972435955009 -3.215694523954246e-06 3.0873287210709564e-07 -100.96595501501879 -6.3611093629270335e-15 -6.3611093629270335e-15 -3.1805546814635168e-15 7.42010976804158 -13.232107571971053 -19.114614481048765 -10.3867711167417 23.66851927239762 -43.11891846451486 0.0 0.0 -1.3417965062424209e-15 3.5748386537719483 -11.771837923437108 16.24510355881057 2.670518165032885 35.15989776386933 49.69873724040805 1.5902773407317584e-15 -5.517382872562698e-33 -3.975693351829396e-16
72.5999984741211 8.0 163.3000030517578 1.5669733764475084 -1.914246038442155 166.86235468603732 -2.0710849811542986e-08 -6.230873561538791e-08 2.2033768012713724 103.01473044172442 76.05808028777582 -91.39241113427677 4.102216970667661e-06 5.169217376891769e-06 116.37381231662711 1.5902773407317584e-15 0.0 0.0 -87.57811105859851 65.1640491100128 73.77748567837634 -1.1919444757003008e-06 -1.1878855889195717e-06 -114.33089839603183 -3.1805546814635168e-15 -1.7655625192200634e-31 6.3611093629270335e-15 7.424842588439207 -14.214764793649731 -18.209857821148745 -10.51614092516058 24.711270895443267 -44.960454092868304 0.0 0.0 -4.472655020808071e-16 3.479794930177729 -13.870909017702369 12.901090656626222 0.3774109326418782 36.96991445518463 53.72065690711234 1.5902773407317582e-15 5.517382872562698e-33 3.9756933518293955e-16
72.5999984741211 8.600000381469727 162.5 1.3929279249063744 -3.3042450287742033 165.3923077137594 -3.6122841603847715e-09 4.6070329830902506e-08 2.8599483008007534 120.53849269536266 73.01456783475864 -129.6142704161573 9.424896932793832e-07 8.977660184131373e-07 122.88406198568737 1.5902773407317578e-15 -6.361109362927032e-15 -3.180554681463516e-15 -103.64090398398167 65.84567073047594 107.8869297752588 -9.63824299709759e-07 2.5044946996489046e-06 -123.40048365955273 9.54166404439055e-15 -1.5902773407317588e-15 -3.1805546814635168e-15 7.076698008192236 -14.263270563577313 -19.9939022028805 -9.861486208000102 23.456284861689273 -43.2073575458246 0.0 0.0 -5.06900902358248e-15 2.7324548089529905 -16.826068160459457 7.432527776388644 -1.1697763175589309 38.98643977285954 58.701830862134955 7.724336021587778e-32 -3.1805546814635176e-15 2.782985346280578e-15
72.69999694824219 9.600000381469727 161.6999969482422 0.870689519256589 -5.036779229748377 163.76131418208843 -5.136098896107913e-08 -2.089982551818307e-07 3.1803892107248246 124.13464634296515 66.55674834050328 -153.5804000196588 -1.4475974179004896e-06 -2.9627393186049655e-07 119.49491653660967 7.95138670365879e-15 -3.180554681463516e-15 6.361109362927033e-15 -119.4076130587161 58.46529630845189 142.06483801616776 4.537003145141485e-06 4.496190382900995e-06 -124.36821375479515 5.29668755766019e-31 -9.54166404439055e-15 6.3611093629270335e-15 7.032581243703606 -14.34323098403829 -22.930011752104985 -9.871073078943619 21.023404753346707 -40.03745907972268 3.6207825101192705e-32 1.5902773407317584e-15 -2.609048762138041e-15 1.032252921686787 -20.78795998585604 -0.826962334071969 -3.493874209572461 41.20562400336438 65.19249168809695 1.5902773407317588e-15 3.310429723537619e-32 2.3854160110976384e-15
73.0 10.5 160.6999969482422 0.349368260762356 -6.0907190224117835 162.03119800682737 2.2204042173677307e-07 -6.549400771908874e-07 3.6402846759356002 118.31605666844872 59.803330262650185 -166.04293437627535 1.8714615986293434e-06 6.2341909039740685e-06 109.45740596570498 -3.975693351829396e-16 2.2069531490250793e-32 -6.3611093629270335e-15 -123.14501508607086 45.984667000402865 162.19296777126493 -5.541043062821731e-07 -3.8934393112343645e-07 -117.08212569448574 -1.5902773407317582e-15 0.0 0.0 6.972802850944332 -13.429325593716891 -25.223550027473546 -9.360072093277012 18.269548878106665 -36.73011530391792 0.0 0.0 -7.777450119516256e-15 -1.3117035449916679 -24.28725165232756 -13.252922724730094 -10.75238140315239 43.1661679207125 78.40696027146628 -1.5902773407317584e-15 -7.724336021587778e-32 5.565970692561154e-15
